# xmcd CD database file
#
# Track frame offsets:
#	182
#	17367
#	33335
#	49670
#	66557
#	84175
#	100542
#	116410
#	134432
#	151702
#	171297
#
# Disc length: 2452 seconds
#
# Revision: 0
# Processed by: cddbd v1.4PL0 Copyright (c) Steve Scherf et al.
# Submitted via: CDex 1.50Beta7
#
DISCID=7c09920b
DTITLE=Nine Below Zero - Off The Hook
DYEAR=1992
DGENRE=Blues
TTITLE0=Soft Touch
TTITLE1=Bad Town
TTITLE2=Work Shy
TTITLE3=Down In he Dirt Again
TTITLE4=Jump Back Baby
TTITLE5=She Gives Me The Shakes
TTITLE6=Satellite Blues
TTITLE7=Fire Down Below
TTITLE8=Blue Moon Fever
TTITLE9=Another Kinda Love
TTITLE10=Goodbye Cherry Red
EXTD=YEAR: 1992
EXTT0=
EXTT1=
EXTT2=
EXTT3=
EXTT4=
EXTT5=
EXTT6=
EXTT7=
EXTT8=
EXTT9=
EXTT10=
PLAYORDER=
